<svg width="100%" height="100%" xmlns="http://www.w3.org/2000/svg" xmlns:xlink="http://www.w3.org/1999/xlink" xml:space="preserve" overflow="hidden" viewBox="0 0 1030 1030"><defs><filter id="fx0" x="-10%" y="-10%" width="120%" height="120%" filterUnits="userSpaceOnUse" primitiveUnits="userSpaceOnUse"><feComponentTransfer color-interpolation-filters="sRGB"><feFuncR type="discrete" tableValues="0 0"/><feFuncG type="discrete" tableValues="0 0"/><feFuncB type="discrete" tableValues="0 0"/><feFuncA type="linear" slope="1" intercept="0"/></feComponentTransfer><feGaussianBlur stdDeviation="6.11111 6.11111"/></filter><clipPath id="clip1"><rect x="524" y="525" width="1030" height="1030"/></clipPath><clipPath id="clip2"><rect x="97" y="97" width="836" height="836"/></clipPath><clipPath id="clip3"><rect x="0" y="0" width="1032" height="1032"/></clipPath><clipPath id="clip4"><rect x="19" y="19" width="993" height="993"/></clipPath><clipPath id="clip5"><rect x="19" y="19" width="993" height="993"/></clipPath><clipPath id="clip6"><rect x="19" y="19" width="993" height="993"/></clipPath><clipPath id="clip7"><rect x="533" y="533" width="992" height="993"/></clipPath><clipPath id="clip8"><rect x="533" y="533" width="992" height="993"/></clipPath><clipPath id="clip9"><rect x="533" y="533" width="992" height="993"/></clipPath></defs><g clip-path="url(#clip1)" transform="translate(-524 -525)"><g clip-path="url(#clip2)" filter="url(#fx0)" transform="translate(523 524)"><g clip-path="url(#clip3)"><g clip-path="url(#clip4)"><g clip-path="url(#clip5)"><g clip-path="url(#clip6)"><path d="M496 103.333C279 103.333 103.333 279 103.333 496 103.333 713 279 888.666 496 888.666 713 888.666 888.666 713 888.666 496 888.666 279 713 103.333 496 103.333ZM144.667 496C144.667 404.033 179.8 321.367 237.667 258.333 246.967 263.5 256.267 271.767 258.333 279L258.333 344.1C258.333 348.233 259.367 353.4 262.467 356.5L330.667 444.333 335.833 439.167C338.933 436.067 339.967 430.9 337.9 426.767L325.5 406.1C320.333 397.833 328.6 387.5 337.9 390.6 341 391.633 343.067 393.7 344.1 395.767L378.2 462.933C382.333 470.167 388.533 476.367 395.767 478.433L441.233 493.933C444.333 494.967 446.4 497.033 447.433 499.1L450.533 504.267C453.633 511.5 460.867 515.633 469.133 515.633L481.533 515.633C484.633 515.633 487.733 517.7 489.8 519.766L503.233 539.4C506.333 543.533 510.467 546.633 515.633 547.667L537.333 552.833C543.533 553.866 546.633 561.1 544.567 566.266 544.567 566.266 528.033 582.8 528.033 606.566 528.033 674.766 590.033 694.4 590.033 709.9 590.033 752.266 583.833 811.166 580.733 833.9 553.866 840.1 525.966 844.233 497.033 844.233 302.767 847.333 144.667 689.233 144.667 496ZM628.266 821.5C651 801.866 689.233 768.8 702.666 754.333 720.233 734.7 723.333 702.666 723.333 702.666 723.333 702.666 795.666 683.033 795.666 630.333 795.666 594.167 723.333 578.667 723.333 578.667 710.933 538.366 649.966 516.667 599.333 516.667 587.966 516.667 547.667 537.333 547.667 537.333L527 527 527 496C527 489.8 522.867 485.667 516.667 485.667L496 485.667 496 454.667C496 448.467 491.866 444.333 485.667 444.333L475.333 444.333 463.967 451.567C453.633 458.8 439.167 454.667 434 443.3 434 443.3 423.667 428.833 423.667 422.633 423.667 378.2 475.333 381.3 475.333 381.3L498.067 381.3C503.233 381.3 507.366 384.4 508.4 389.567L514.6 415.4C515.633 419.533 519.766 423.667 524.933 423.667L529.067 423.667C534.233 423.667 538.366 420.567 539.4 415.4L546.633 377.167C547.667 374.067 548.7 370.967 550.766 367.867L579.7 331.7C585.9 324.467 594.167 320.333 603.466 320.333L630.333 320.333C636.533 320.333 640.666 316.2 640.666 310L640.666 299.667 637.566 296.567C631.366 290.367 635.5 279 644.8 279L651 279C657.2 279 661.333 283.133 661.333 289.333 661.333 295.533 665.466 299.667 671.666 299.667L682 299.667 688.2 272.8C690.266 263.5 686.133 255.233 678.9 250.067L591.066 197.367C590.033 196.333 587.966 196.333 585.9 196.333L568.333 196.333C556.966 196.333 547.667 205.633 547.667 217L547.667 227.333C547.667 233.533 543.533 237.667 537.333 237.667L527 237.667 516.667 227.333 485.667 227.333C479.467 227.333 475.333 223.2 475.333 217L475.333 191.167C475.333 188.067 476.367 184.967 479.467 182.9L545.6 155 555.933 172.567C558 174.633 560.067 175.667 563.167 175.667L589 175.667C595.2 175.667 599.333 171.533 599.333 165.333L599.333 160.167C742.966 204.6 847.333 337.9 847.333 496 847.333 642.733 756.4 768.8 628.266 821.5Z" stroke="#000000" stroke-width="5.02915" fill="#5B9BD5" transform="matrix(1 0 0 1 19.7229 19.7225)"/><path d="M623.1 452.6 573.5 436.067C569.366 435.033 566.266 435.033 562.133 436.067L527 444.333C523.9 446.4 522.867 450.533 527 454.667L574.533 454.667C577.633 454.667 579.7 454.667 581.766 455.7L617.933 470.167C624.133 472.233 630.333 468.1 630.333 461.9 630.333 457.767 627.233 453.633 623.1 452.6Z" stroke="#000000" stroke-width="5.02915" fill="#5B9BD5" transform="matrix(1 0 0 1 19.7229 19.7225)"/></g></g></g></g></g><g clip-path="url(#clip7)"><g clip-path="url(#clip8)"><g clip-path="url(#clip9)"><path d="M496 103.333C279 103.333 103.333 279 103.333 496 103.333 713 279 888.666 496 888.666 713 888.666 888.666 713 888.666 496 888.666 279 713 103.333 496 103.333ZM144.667 496C144.667 404.033 179.8 321.367 237.667 258.333 246.967 263.5 256.267 271.767 258.333 279L258.333 344.1C258.333 348.233 259.367 353.4 262.467 356.5L330.667 444.333 335.833 439.167C338.933 436.067 339.967 430.9 337.9 426.767L325.5 406.1C320.333 397.833 328.6 387.5 337.9 390.6 341 391.633 343.067 393.7 344.1 395.767L378.2 462.933C382.333 470.167 388.533 476.367 395.767 478.433L441.233 493.933C444.333 494.967 446.4 497.033 447.433 499.1L450.533 504.267C453.633 511.5 460.867 515.633 469.133 515.633L481.533 515.633C484.633 515.633 487.733 517.7 489.8 519.766L503.233 539.4C506.333 543.533 510.467 546.633 515.633 547.667L537.333 552.833C543.533 553.866 546.633 561.1 544.567 566.266 544.567 566.266 528.033 582.8 528.033 606.566 528.033 674.766 590.033 694.4 590.033 709.9 590.033 752.266 583.833 811.166 580.733 833.9 553.866 840.1 525.966 844.233 497.033 844.233 302.767 847.333 144.667 689.233 144.667 496ZM628.266 821.5C651 801.866 689.233 768.8 702.666 754.333 720.233 734.7 723.333 702.666 723.333 702.666 723.333 702.666 795.666 683.033 795.666 630.333 795.666 594.167 723.333 578.667 723.333 578.667 710.933 538.366 649.966 516.667 599.333 516.667 587.966 516.667 547.667 537.333 547.667 537.333L527 527 527 496C527 489.8 522.867 485.667 516.667 485.667L496 485.667 496 454.667C496 448.467 491.866 444.333 485.667 444.333L475.333 444.333 463.967 451.567C453.633 458.8 439.167 454.667 434 443.3 434 443.3 423.667 428.833 423.667 422.633 423.667 378.2 475.333 381.3 475.333 381.3L498.067 381.3C503.233 381.3 507.366 384.4 508.4 389.567L514.6 415.4C515.633 419.533 519.766 423.667 524.933 423.667L529.067 423.667C534.233 423.667 538.366 420.567 539.4 415.4L546.633 377.167C547.667 374.067 548.7 370.967 550.766 367.867L579.7 331.7C585.9 324.467 594.167 320.333 603.466 320.333L630.333 320.333C636.533 320.333 640.666 316.2 640.666 310L640.666 299.667 637.566 296.567C631.366 290.367 635.5 279 644.8 279L651 279C657.2 279 661.333 283.133 661.333 289.333 661.333 295.533 665.466 299.667 671.666 299.667L682 299.667 688.2 272.8C690.266 263.5 686.133 255.233 678.9 250.067L591.066 197.367C590.033 196.333 587.966 196.333 585.9 196.333L568.333 196.333C556.966 196.333 547.667 205.633 547.667 217L547.667 227.333C547.667 233.533 543.533 237.667 537.333 237.667L527 237.667 516.667 227.333 485.667 227.333C479.467 227.333 475.333 223.2 475.333 217L475.333 191.167C475.333 188.067 476.367 184.967 479.467 182.9L545.6 155 555.933 172.567C558 174.633 560.067 175.667 563.167 175.667L589 175.667C595.2 175.667 599.333 171.533 599.333 165.333L599.333 160.167C742.966 204.6 847.333 337.9 847.333 496 847.333 642.733 756.4 768.8 628.266 821.5Z" stroke="#000000" stroke-width="5.02915" fill="#5B9BD5" transform="matrix(1 0 0 1 533 534)"/><path d="M623.1 452.6 573.5 436.067C569.366 435.033 566.266 435.033 562.133 436.067L527 444.333C523.9 446.4 522.867 450.533 527 454.667L574.533 454.667C577.633 454.667 579.7 454.667 581.766 455.7L617.933 470.167C624.133 472.233 630.333 468.1 630.333 461.9 630.333 457.767 627.233 453.633 623.1 452.6Z" stroke="#000000" stroke-width="5.02915" fill="#5B9BD5" transform="matrix(1 0 0 1 533 534)"/></g></g></g><path d="M915.605 933.164 1065.67 933.164 1067.55 933.164 1136.6 933.164 1143.76 1025.37 1146.69 1108.69C1147.4 1065.74 1152.77 1007.24 1162.8 933.164L1237.66 933.164C1238.68 942.484 1241.12 971.089 1244.98 1018.98L1248.97 1114.81C1250.86 1054.58 1256.17 994.029 1264.91 933.164L1335.73 933.164 1305.76 1195.33 1217.11 1195.33C1209.22 1154.13 1203.38 1109.43 1199.57 1061.23 1199.1 1080.83 1193.94 1125.53 1184.08 1195.33L1095.75 1195.33 1067.55 949.567 1067.55 990.849 1028.08 990.849 1028.08 1195.33 954.921 1195.33 954.921 990.849 915.605 990.849ZM825.836 927.685C843.589 927.685 858.863 930.622 871.657 936.495 884.451 942.368 892.953 949.826 897.165 958.87 901.376 967.913 903.482 982.828 903.482 1003.61L903.482 1016.95 835.161 1016.95 835.161 994.782C835.161 986.635 834.605 981.714 833.492 980.018 832.379 978.323 830.568 977.475 828.059 977.475 825.32 977.475 823.16 978.72 821.58 981.209 819.999 983.698 819.209 987.94 819.209 993.934 819.209 1001.95 820.048 1007.48 821.724 1010.55 824.081 1015.07 828.491 1020.08 834.955 1025.57 868.278 1043.86 888.89 1058.79 896.792 1070.36 904.904 1082.25 908.96 1101.02 908.96 1126.66 908.96 1145.35 906.691 1159.29 902.154 1168.48 897.616 1177.67 888.947 1185.33 876.147 1191.46 863.347 1197.58 848.576 1200.64 831.833 1200.64 813.44 1200.64 797.673 1197.12 784.532 1190.08 771.39 1183.04 762.766 1174.02 758.66 1163.03 754.553 1152.04 752.5 1136.75 752.5 1117.17L752.5 1097.2 820.821 1097.2 820.821 1131.51C820.821 1140.5 821.442 1145.97 822.685 1147.92 823.928 1149.88 826.13 1150.85 829.293 1150.85 832.52 1150.85 834.977 1149.5 836.662 1146.79 838.347 1144.09 839.19 1139.63 839.19 1133.42 839.19 1119.22 838.01 1110.47 835.65 1107.15 830.358 1102.03 819.572 1094.11 803.292 1083.4 786.597 1072.3 775.456 1064.18 769.87 1059.03 764.284 1053.89 759.643 1046.74 755.948 1037.59 752.253 1028.43 750.406 1016.83 750.406 1002.77 750.406 982.604 753.055 967.727 758.353 958.138 763.651 948.55 772.156 941.078 783.867 935.721 795.579 930.364 809.568 927.685 825.836 927.685Z" fill-rule="evenodd"/><path d="M821.859 1097.37 821.859 1131.51 821.983 1137.56 822.356 1142.31 822.891 1145.56 823.577 1147.36 825.743 1149.21 829.335 1149.88 831.37 1149.66 833.048 1149.01 834.532 1147.86 835.82 1146.29 836.854 1144.1 837.624 1141.26 838.053 1137.65 838.235 1133.41 838.171 1128.4 837.984 1123.87 837.736 1119.83 837.364 1116.37 836.872 1113.36 836.263 1110.94 835.547 1109.05 834.874 1107.83 832.745 1105.88 830.028 1103.59 826.802 1101.05 823.007 1098.19ZM916.605 934.164 916.605 989.851 954.922 989.89C955.474 989.89 955.921 990.338 955.921 990.89L955.921 1194.33 1027.11 1194.33 1027.11 990.89C1027.11 990.337 1027.56 989.89 1028.11 989.89L1066.61 989.89 1066.61 949.577C1066.61 949.047 1067.02 948.609 1067.55 948.579 1068.08 948.548 1068.54 948.936 1068.6 949.463L1096.69 1194.33 1183.24 1194.33 1184.93 1182.38 1186.62 1170.19 1188.18 1158.57 1189.62 1147.57 1190.99 1137.14 1192.24 1127.27 1193.37 1118.03 1194.37 1109.34 1195.3 1101.28 1196.11 1093.79 1196.8 1086.86 1197.36 1080.55 1197.86 1074.88 1198.24 1069.71 1198.48 1065.17 1198.61 1061.23C1198.63 1060.7 1199.05 1060.28 1199.58 1060.27 1200.11 1060.25 1200.56 1060.65 1200.6 1061.17L1203.85 1096.65 1207.85 1130.81 1212.59 1163.59 1217.95 1194.33 1304.9 1194.33 1334.61 934.202 1265.8 934.202 1259.98 978.866 1255.36 1024.34 1252.05 1069.62 1249.98 1114.87C1249.96 1115.41 1249.52 1115.83 1248.98 1115.83 1248.45 1115.83 1248.01 1115.4 1247.98 1114.87L1243.99 1019.09 1243.3 1010.35 1242.61 1002.03 1241.99 994.223 1241.36 986.783 1240.8 979.841 1240.3 973.348 1239.8 967.353 1239.3 961.725 1238.86 956.607 1238.43 951.915 1238.05 947.66 1237.74 943.919 1237.43 940.56 1237.11 937.682 1236.86 935.295 1236.76 934.202 1163.74 934.202 1160.29 960.386 1157.17 985.935 1154.54 1010.05 1152.29 1032.72 1150.48 1053.9 1149.11 1073.62 1148.23 1091.92 1147.73 1108.73C1147.72 1109.27 1147.28 1109.7 1146.74 1109.7 1146.2 1109.7 1145.75 1109.28 1145.73 1108.74L1142.8 1025.47 1135.68 934.202 1067.61 934.202 1065.67 934.202ZM915.605 932.164 1065.67 932.202 1067.61 932.202 1136.61 932.202C1137.13 932.202 1137.56 932.604 1137.61 933.124L1144.79 1025.31 1146.76 1080.95 1147.11 1073.53 1148.49 1053.76 1150.3 1032.55 1152.55 1009.85 1155.18 985.719 1158.3 960.143 1161.87 933.072C1161.93 932.574 1162.36 932.202 1162.86 932.202L1237.67 932.202C1238.19 932.202 1238.62 932.595 1238.67 933.109L1238.85 935.109 1239.1 937.472 1239.42 940.344 1239.73 943.735 1240.04 947.494 1240.42 951.739 1240.85 956.422 1241.29 961.555 1241.79 967.176 1242.29 973.182 1242.79 979.688 1243.36 986.621 1243.98 994.056 1244.61 1001.87 1245.29 1010.18 1245.98 1018.94 1249.03 1091.91 1250.05 1069.53 1253.36 1024.19 1257.99 978.663 1263.93 933.073C1263.99 932.575 1264.42 932.202 1264.92 932.202L1335.73 932.202C1336.02 932.202 1336.29 932.324 1336.48 932.536 1336.67 932.749 1336.76 933.032 1336.73 933.316L1306.79 1195.44C1306.73 1195.95 1306.3 1196.33 1305.8 1196.33L1217.11 1196.33C1216.62 1196.33 1216.21 1195.98 1216.12 1195.5L1210.62 1163.94 1205.87 1131.1 1201.87 1096.88 1199.86 1074.97 1199.86 1075.02 1199.35 1080.73 1198.79 1087.04 1198.1 1093.99 1197.29 1101.5 1196.35 1109.57 1195.35 1118.25 1194.23 1127.51 1192.98 1137.39 1191.6 1147.83 1190.16 1158.83 1188.6 1170.46 1186.91 1182.65 1185.1 1195.47C1185.03 1195.96 1184.61 1196.33 1184.11 1196.33L1095.8 1196.33C1095.29 1196.33 1094.86 1195.95 1094.8 1195.44L1068.61 967.071 1068.61 990.89C1068.61 991.442 1068.16 991.89 1067.61 991.89L1029.11 991.89 1029.11 1195.33C1029.11 1195.88 1028.66 1196.33 1028.11 1196.33L954.921 1196.33C954.369 1196.33 953.921 1195.88 953.921 1195.33L953.921 991.889 915.604 991.849C915.052 991.849 914.605 991.401 914.605 990.849L914.605 933.164C914.605 932.612 915.053 932.164 915.605 932.164ZM825.88 928.684 814.245 929.193 803.418 930.671 793.465 933.199 784.392 936.647 776.272 940.985 769.395 946.144 763.7 951.961 759.259 958.575 757.424 962.355 755.884 966.599 754.524 971.409 753.41 976.663 752.541 982.425 751.92 988.757 751.546 995.532 751.42 1002.79 751.79 1012.78 752.774 1021.81 754.496 1029.95 756.895 1037.23 759.785 1043.64 763.043 1049.24 766.582 1054.14 770.577 1058.32 772.941 1060.38 775.716 1062.72 779.142 1065.34 783.005 1068.2 787.437 1071.39 792.359 1074.88 797.851 1078.62 803.847 1082.62 809.735 1086.5 815.058 1090.13 819.875 1093.51 824.211 1096.59 828.04 1099.48 831.315 1102.06 834.097 1104.4 836.347 1106.46C836.429 1106.54 836.498 1106.63 836.55 1106.73L837.42 1108.35 838.204 1110.46 838.846 1113.04 839.353 1116.16 839.732 1119.7 839.983 1123.79 840.171 1128.38 840.233 1133.5 840.039 1137.88 839.602 1141.57C839.596 1141.62 839.587 1141.67 839.574 1141.71L838.761 1144.71C838.746 1144.77 838.725 1144.83 838.7 1144.88L837.575 1147.26C837.54 1147.33 837.496 1147.4 837.444 1147.46L836.006 1149.21C835.959 1149.27 835.906 1149.32 835.848 1149.37L834.16 1150.68C834.083 1150.74 833.998 1150.79 833.907 1150.82L831.97 1151.57C831.888 1151.6 831.803 1151.62 831.716 1151.63L829.404 1151.88C829.306 1151.89 829.208 1151.89 829.112 1151.87L825.112 1151.12C824.94 1151.09 824.78 1151.01 824.647 1150.9L822.084 1148.71C821.957 1148.6 821.859 1148.47 821.8 1148.31L820.987 1146.18C820.963 1146.12 820.945 1146.06 820.934 1145.99L820.362 1142.47 819.984 1137.6 819.859 1131.51 819.859 1098.2 753.546 1098.2 753.546 1117.18 753.67 1124.29 753.918 1131 754.415 1137.27 755.098 1143.18 755.9 1148.69 756.951 1153.76 758.182 1158.45 759.59 1162.68 761.289 1166.64 763.423 1170.37 765.987 1173.98 768.928 1177.36 772.291 1180.6 776.109 1183.63 780.365 1186.53 784.953 1189.23 795.202 1193.8 806.389 1197.09 818.598 1199.02 831.813 1199.7 843.895 1199.15 855.224 1197.42 865.8 1194.59 875.714 1190.62 880.284 1188.28 884.414 1185.82 888.225 1183.18 891.604 1180.42 894.599 1177.55 897.169 1174.56 899.422 1171.4 901.256 1168.11 902.849 1164.51 904.203 1160.51 905.376 1156.02 906.305 1151.07 907.05 1145.62 907.547 1139.78 907.859 1133.5 907.984 1126.72 907.798 1117.45 907.24 1108.88 906.313 1100.95 904.951 1093.63 903.29 1086.97 901.196 1080.99 898.816 1075.66 896.012 1071.01 892.522 1066.59 887.83 1061.83 881.939 1056.75 874.852 1051.34 866.571 1045.61 857.095 1039.56 846.368 1033.14 834.493 1026.45C834.429 1026.41 834.369 1026.37 834.314 1026.32L829.822 1022.27 826.082 1018.33 823.073 1014.61 820.886 1011.11C820.856 1011.06 820.83 1011.01 820.808 1010.96L819.683 1008.21C819.659 1008.15 819.641 1008.09 819.629 1008.03L818.864 1004.25 818.359 999.537 818.234 993.922 818.369 989.623 818.892 986.007 819.642 983.194C819.657 983.14 819.676 983.087 819.699 983.036L820.699 980.849C820.734 980.773 820.778 980.701 820.831 980.636L822.143 979.011C822.19 978.954 822.242 978.901 822.3 978.856L823.8 977.668C823.878 977.607 823.964 977.557 824.055 977.521L825.805 976.834C825.882 976.804 825.962 976.783 826.043 976.773L827.981 976.523C828.086 976.509 828.193 976.512 828.297 976.533L831.547 977.158C831.724 977.191 831.887 977.272 832.022 977.391L834.209 979.328C834.333 979.438 834.428 979.577 834.485 979.733L835.173 981.608C835.194 981.667 835.21 981.729 835.221 981.791L835.731 984.942 836.046 989.304 836.171 994.827 836.171 1015.95 902.484 1015.95 902.484 1003.66 902.359 996.175 902.112 989.217 901.616 982.82 900.934 977.05 900.073 971.745 898.963 967.051 897.745 962.954 896.287 959.357 894.597 956.143 892.473 953.039 889.979 950.112 887.039 947.29 883.738 944.594 879.981 942.066 875.859 939.664 871.312 937.448 861.365 933.609 850.536 930.88 838.689 929.264ZM825.792 926.686 838.779 927.266 850.806 928.899 861.852 931.67 872.031 935.581 876.734 937.865 880.987 940.338 884.854 942.935 888.303 945.739 891.363 948.668 893.994 951.74 896.246 955.011 898.055 958.422 899.597 962.2 900.879 966.479 902.019 971.284 902.908 976.729 903.602 982.585 904.106 989.062 904.358 996.104 904.484 1003.62 904.484 1016.95C904.484 1017.5 904.036 1017.95 903.484 1017.95L835.171 1017.95C834.619 1017.95 834.171 1017.5 834.171 1016.95L834.171 994.827 834.046 989.35 833.736 985.087 833.262 982.208 832.694 980.658 830.901 979.07 828.077 978.527 826.422 978.74 824.925 979.328 823.629 980.354 822.466 981.795 821.553 983.791 820.825 986.522 820.349 989.906 820.233 993.982 820.358 999.492 820.853 1004.03 821.57 1007.53 822.627 1010.12 824.769 1013.55 827.636 1017.07 831.271 1020.89 835.571 1024.76 847.349 1031.39 858.122 1037.84 867.647 1043.92 875.99 1049.69 883.153 1055.16 889.137 1060.32 893.945 1065.19 897.58 1069.77 900.527 1074.62 903.021 1080.17 905.177 1086.31 906.891 1093.15 908.279 1100.58 909.227 1108.65 909.794 1117.32 909.983 1126.68 909.859 1133.53 909.545 1139.88 909.043 1145.79 908.287 1151.34 907.342 1156.39 906.139 1161.02 904.743 1165.15 903.086 1168.92 901.17 1172.38 898.798 1175.72 896.118 1178.85 892.988 1181.86 889.492 1184.73 885.554 1187.46 881.309 1190 876.628 1192.4 866.543 1196.44 855.743 1199.36 844.197 1201.13 831.905 1201.7 818.495 1201.01 806.078 1199.06 794.64 1195.72 784.139 1191.05 779.353 1188.25 774.983 1185.28 771.051 1182.17 767.54 1178.8 764.48 1175.3 761.794 1171.53 759.554 1167.64 757.753 1163.47 756.285 1159.08 755.017 1154.27 753.942 1149.09 753.119 1143.47 752.428 1137.5 751.924 1131.16 751.672 1124.36 751.546 1117.22 751.546 1097.2C751.546 1096.65 751.994 1096.2 752.546 1096.2L820.21 1096.2 818.717 1095.14 813.909 1091.77 808.608 1088.15 802.746 1084.29 796.741 1080.28 791.233 1076.53 786.28 1073.02 781.838 1069.83 777.95 1066.94 774.502 1064.31 771.651 1061.9 769.266 1059.83 765.136 1055.52 761.424 1050.41 758.057 1044.64 755.072 1038.05 752.597 1030.58 750.818 1022.22 749.802 1013 749.422 1002.86 749.546 995.497 749.923 988.647 750.551 982.229 751.432 976.366 752.568 970.995 753.959 966.056 755.543 961.674 757.458 957.704 762.09 950.771C762.125 950.719 762.163 950.672 762.207 950.628L768.019 944.69C768.055 944.654 768.093 944.62 768.134 944.59L775.134 939.34C775.174 939.309 775.217 939.282 775.262 939.258L783.45 934.883 792.753 931.33 802.924 928.733 813.973 927.211Z" fill-rule="evenodd"/><path d="M906.063 923.622 1056.13 923.622 1058.01 923.622 1127.06 923.622 1134.22 1015.83 1137.14 1099.14C1137.86 1056.2 1143.23 997.695 1153.26 923.622L1228.12 923.622C1229.14 932.943 1231.58 961.547 1235.44 1009.44L1239.43 1105.27C1241.32 1045.03 1246.63 984.487 1255.36 923.622L1326.19 923.622 1296.22 1185.79 1207.56 1185.79C1199.68 1144.59 1193.83 1099.89 1190.03 1051.69 1189.56 1071.28 1184.4 1115.98 1174.54 1185.79L1086.21 1185.79 1058.01 940.025 1058.01 981.308 1018.53 981.308 1018.53 1185.79 945.379 1185.79 945.379 981.308 906.063 981.308ZM816.294 918.144C834.047 918.144 849.321 921.08 862.115 926.953 874.909 932.826 883.412 940.284 887.623 949.328 891.834 958.372 893.94 973.286 893.94 994.073L893.94 1007.41 825.62 1007.41 825.62 985.24C825.62 977.093 825.063 972.172 823.95 970.477 822.838 968.781 821.026 967.934 818.517 967.934 815.778 967.934 813.618 969.178 812.038 971.667 810.458 974.157 809.667 978.398 809.667 984.392 809.667 992.403 810.506 997.943 812.183 1001.01 814.539 1005.53 818.949 1010.54 825.413 1016.03 858.736 1034.31 879.348 1049.24 887.25 1060.82 895.362 1072.71 899.418 1091.48 899.418 1117.12 899.418 1135.81 897.15 1149.75 892.612 1158.94 888.074 1168.13 879.405 1175.79 866.605 1181.91 853.805 1188.04 839.034 1191.1 822.291 1191.1 803.899 1191.1 788.131 1187.58 774.99 1180.54 761.848 1173.5 753.224 1164.48 749.118 1153.49 745.012 1142.49 742.958 1127.21 742.958 1107.62L742.958 1087.66 811.279 1087.66 811.279 1121.97C811.279 1130.95 811.9 1136.43 813.143 1138.38 814.386 1140.34 816.589 1141.31 819.751 1141.31 822.979 1141.31 825.435 1139.96 827.12 1137.25 828.805 1134.55 829.648 1130.09 829.648 1123.88 829.648 1109.68 828.468 1100.92 826.108 1097.61 820.816 1092.49 810.03 1084.57 793.751 1073.85 777.055 1062.76 765.914 1054.64 760.328 1049.49 754.742 1044.35 750.102 1037.2 746.406 1028.04 742.711 1018.89 740.864 1007.29 740.864 993.229 740.864 973.062 743.513 958.185 748.811 948.597 754.109 939.008 762.614 931.536 774.325 926.179 786.037 920.822 800.026 918.144 816.294 918.144Z" stroke="#000000" stroke-width="2" stroke-linejoin="round" stroke-miterlimit="10" fill="#00B050" fill-rule="evenodd"/><text fill="#000000" fill-opacity="0" font-family="Arial,Arial_MSFontService,sans-serif" font-size="272.959" x="740.864" y="1156.98">STW</text></g></svg>