<svg width="2283" height="1937" xmlns="http://www.w3.org/2000/svg" xmlns:xlink="http://www.w3.org/1999/xlink" xml:space="preserve" overflow="hidden"><defs><filter id="fx0" x="-10%" y="-10%" width="120%" height="120%" filterUnits="userSpaceOnUse" primitiveUnits="userSpaceOnUse"><feComponentTransfer color-interpolation-filters="sRGB"><feFuncR type="discrete" tableValues="0 0"/><feFuncG type="discrete" tableValues="0 0"/><feFuncB type="discrete" tableValues="0 0"/><feFuncA type="linear" slope="1" intercept="0"/></feComponentTransfer><feGaussianBlur stdDeviation="6.11111 6.11111"/></filter><clipPath id="clip1"><rect x="983" y="258" width="2283" height="1937"/></clipPath><clipPath id="clip2"><rect x="156" y="-3" width="1947" height="1944"/></clipPath><clipPath id="clip3"><rect x="0" y="0" width="2285" height="1939"/></clipPath></defs><g clip-path="url(#clip1)" transform="translate(-983 -258)"><g clip-path="url(#clip2)" filter="url(#fx0)" transform="translate(982 257)"><g clip-path="url(#clip3)"><path d="M1129.23 25.7295C607.823 25.7295 185.73 447.823 185.73 969.231 185.73 1490.64 607.823 1912.73 1129.23 1912.73 1650.64 1912.73 2072.73 1490.64 2072.73 969.231 2072.73 447.823 1650.64 25.7295 1129.23 25.7295ZM285.047 969.231C285.047 748.252 369.465 549.622 508.507 398.164 530.854 410.579 553.2 430.443 558.164 447.823L558.164 604.245C558.164 614.176 560.649 626.591 568.097 634.04L731.968 845.085 744.381 832.672C751.83 825.224 754.314 812.808 749.348 802.878L719.553 753.219C707.138 733.355 727.002 708.527 749.348 715.975 756.797 718.457 761.763 723.424 764.245 728.391L846.181 889.778C856.111 907.159 871.009 922.056 888.391 927.021L997.636 964.264C1005.09 966.749 1010.05 971.713 1012.53 976.679L1019.98 989.095C1027.43 1006.47 1044.81 1016.4 1064.67 1016.4L1094.47 1016.4C1101.92 1016.4 1109.37 1021.37 1114.33 1026.34L1146.61 1073.51C1154.06 1083.44 1163.99 1090.89 1176.4 1093.38L1228.55 1105.79C1243.44 1108.27 1250.89 1125.65 1245.93 1138.07 1245.93 1138.07 1206.2 1177.79 1206.2 1234.9 1206.2 1398.77 1355.17 1445.95 1355.17 1483.19 1355.17 1584.99 1340.28 1726.51 1332.83 1781.14 1268.27 1796.04 1201.23 1805.97 1131.71 1805.97 664.93 1813.41 285.047 1433.53 285.047 969.231ZM1447.04 1751.34C1501.67 1704.17 1593.53 1624.72 1625.81 1589.95 1668.02 1542.78 1675.47 1465.81 1675.47 1465.81 1675.47 1465.81 1849.27 1418.63 1849.27 1292.01 1849.27 1205.11 1675.47 1167.86 1675.47 1167.86 1645.67 1071.03 1499.18 1018.89 1377.52 1018.89 1350.21 1018.89 1253.38 1068.55 1253.38 1068.55L1203.72 1043.72 1203.72 969.231C1203.72 954.334 1193.79 944.403 1178.89 944.403L1129.23 944.403 1129.23 869.916C1129.23 855.018 1119.3 845.085 1104.4 845.085L1079.57 845.085 1052.26 862.467C1027.43 879.847 992.672 869.916 980.257 842.603 980.257 842.603 955.429 807.842 955.429 792.944 955.429 686.181 1079.57 693.629 1079.57 693.629L1134.2 693.629C1146.61 693.629 1156.54 701.078 1159.03 713.493L1173.92 775.565C1176.4 785.496 1186.34 795.429 1198.75 795.429L1208.68 795.429C1221.1 795.429 1231.03 787.98 1233.51 775.565L1250.89 683.699C1253.38 676.25 1255.86 668.801 1260.82 661.352L1330.35 574.45C1345.24 557.071 1365.11 547.138 1387.45 547.138L1452.01 547.138C1466.9 547.138 1476.83 537.207 1476.83 522.31L1476.83 497.481 1469.39 490.032C1454.49 475.135 1464.42 447.823 1486.77 447.823L1501.67 447.823C1516.56 447.823 1526.49 457.754 1526.49 472.651 1526.49 487.548 1536.42 497.481 1551.32 497.481L1576.15 497.481 1591.05 432.925C1596.01 410.579 1586.08 390.715 1568.7 378.302L1357.66 251.675C1355.17 249.19 1350.21 249.19 1345.24 249.19L1303.03 249.19C1275.72 249.19 1253.38 271.536 1253.38 298.849L1253.38 323.677C1253.38 338.574 1243.44 348.507 1228.55 348.507L1203.72 348.507 1178.89 323.677 1104.4 323.677C1089.51 323.677 1079.57 313.746 1079.57 298.849L1079.57 236.777C1079.57 229.328 1082.06 221.88 1089.51 216.913L1248.41 149.875 1273.24 192.085C1278.2 197.049 1283.17 199.534 1290.62 199.534L1352.69 199.534C1367.59 199.534 1377.52 189.601 1377.52 174.703L1377.52 162.29C1722.64 269.054 1973.41 589.348 1973.41 969.231 1973.41 1321.8 1754.92 1624.72 1447.04 1751.34Z" stroke="#000000" stroke-width="12" stroke-miterlimit="8" fill="#5B9BD5" fill-rule="evenodd"/><path d="M1434.41 865.275 1315.62 825.591C1305.72 823.109 1298.3 823.109 1288.4 825.591L1204.26 845.432C1196.83 850.393 1194.36 860.313 1204.26 870.236L1318.09 870.236C1325.52 870.236 1330.47 870.236 1335.42 872.716L1422.03 907.44C1436.88 912.399 1451.73 902.479 1451.73 887.597 1451.73 877.677 1444.31 867.754 1434.41 865.275Z" stroke="#000000" stroke-width="12" stroke-miterlimit="8" fill="#5B9BD5" fill-rule="evenodd"/><path d="M1411.34 841.271 1292.08 801.587C1282.14 799.106 1274.69 799.106 1264.75 801.587L1180.28 821.428C1172.83 826.389 1170.34 836.31 1180.28 846.232L1294.57 846.232C1302.02 846.232 1306.99 846.232 1311.96 848.712L1398.91 883.436C1413.82 888.395 1428.73 878.475 1428.73 863.593 1428.73 853.673 1421.27 843.75 1411.34 841.271Z" stroke="#000000" stroke-width="12" stroke-miterlimit="8" fill="#5B9BD5" fill-rule="evenodd"/><path d="M833.357 712.701 1193.83 712.701 1198.34 712.701 1364.21 712.701 1381.4 934.302 1388.44 1134.55C1390.15 1031.32 1403.05 890.73 1427.14 712.701L1606.96 712.701C1609.41 735.1 1615.27 803.847 1624.54 918.945L1634.13 1149.26C1638.67 1004.5 1651.42 858.98 1672.42 712.701L1842.53 712.701 1770.54 1342.77 1557.6 1342.77C1538.65 1243.75 1524.62 1136.33 1515.47 1020.49 1514.34 1067.59 1501.94 1175.02 1478.26 1342.77L1266.08 1342.77 1198.34 752.123 1198.34 851.337 1103.53 851.337 1103.53 1342.77 927.797 1342.77 927.797 851.337 833.357 851.337ZM617.723 699.533C660.368 699.533 697.057 706.592 727.789 720.706 758.522 734.821 778.944 752.745 789.062 774.481 799.177 796.214 804.236 832.06 804.236 882.006L804.236 914.066 640.123 914.066 640.123 860.789C640.123 841.209 638.787 829.383 636.114 825.306 633.44 821.233 629.09 819.195 623.063 819.195 616.484 819.195 611.295 822.187 607.5 828.169 603.702 834.151 601.805 844.346 601.805 858.751 601.805 878.016 603.82 891.307 607.846 898.685 613.508 909.548 624.101 921.589 639.628 934.783 719.673 978.74 769.185 1014.62 788.166 1042.43 807.652 1071 817.395 1116.11 817.395 1177.74 817.395 1222.65 811.944 1256.16 801.046 1278.24 790.146 1300.33 769.322 1318.74 738.575 1333.47 707.828 1348.18 672.347 1355.53 632.129 1355.53 587.947 1355.53 550.073 1347.07 518.507 1330.15 486.939 1313.23 466.224 1291.56 456.361 1265.14 446.495 1238.73 441.564 1201.98 441.564 1154.93L441.564 1106.93 605.677 1106.93 605.677 1189.39C605.677 1211 607.169 1224.14 610.154 1228.83 613.14 1233.54 618.43 1235.87 626.027 1235.87 633.779 1235.87 639.681 1232.63 643.728 1226.11 647.776 1219.63 649.801 1208.91 649.801 1193.98 649.801 1159.85 646.966 1138.83 641.297 1130.85 628.585 1118.54 602.677 1099.51 563.57 1073.77 523.468 1047.09 496.706 1027.58 483.288 1015.2 469.87 1002.85 458.722 985.661 449.846 963.671 440.97 941.656 436.534 913.778 436.534 879.987 436.534 831.522 442.897 795.767 455.623 772.722 468.35 749.679 488.779 731.721 516.91 718.846 545.043 705.972 578.646 699.533 617.723 699.533Z" fill-rule="evenodd"/><path d="M608.561 1107.77 608.561 1189.83 608.859 1204.37 609.755 1215.79 611.04 1223.6 612.688 1227.93 617.892 1232.37 626.522 1233.98 631.411 1233.45 635.442 1231.89 639.007 1229.13 642.102 1225.35 644.586 1220.09 646.436 1213.27 647.466 1204.59 647.904 1194.4 647.75 1182.36 647.301 1171.47 646.705 1161.76 645.811 1153.44 644.629 1146.21 643.166 1140.39 641.446 1135.85 639.829 1132.92 634.714 1128.23 628.187 1122.72 620.436 1116.62 611.319 1109.75ZM836.185 715.507 836.185 849.351 928.24 849.445C929.566 849.445 930.64 850.522 930.64 851.849L930.64 1340.82 1101.67 1340.82 1101.67 851.849C1101.67 850.519 1102.75 849.445 1104.07 849.445L1196.57 849.445 1196.57 752.552C1196.57 751.278 1197.55 750.225 1198.82 750.153 1200.1 750.079 1201.2 751.011 1201.35 752.278L1268.83 1340.82 1476.77 1340.82 1480.83 1312.1 1484.89 1282.8 1488.63 1254.87 1492.09 1228.43 1495.39 1203.36 1498.39 1179.64 1501.1 1157.43 1503.51 1136.54 1505.74 1117.17 1507.69 1099.17 1509.34 1082.51 1510.69 1067.35 1511.89 1053.72 1512.8 1041.29 1513.38 1030.38 1513.69 1020.91C1513.74 1019.64 1514.75 1018.63 1516.02 1018.6 1517.3 1018.56 1518.38 1019.52 1518.47 1020.77L1526.28 1106.04 1535.89 1188.15 1547.28 1266.94 1560.16 1340.82 1769.05 1340.82 1840.43 715.598 1675.11 715.598 1661.13 822.949 1650.03 932.246 1642.08 1041.08 1637.11 1149.84C1637.06 1151.13 1636 1152.14 1634.7 1152.14 1633.43 1152.14 1632.37 1151.11 1632.3 1149.84L1622.72 919.628 1621.06 898.621 1619.4 878.624 1617.91 859.86 1616.4 841.977 1615.05 825.292 1613.85 809.686 1612.65 795.277 1611.45 781.75 1610.39 769.449 1609.36 758.171 1608.45 747.944 1607.7 738.953 1606.96 730.88 1606.19 723.962 1605.59 718.225 1605.35 715.598 1429.92 715.598 1421.63 778.532 1414.13 839.939 1407.82 897.9 1402.41 952.387 1398.06 1003.29 1394.77 1050.69 1392.66 1094.68 1391.45 1135.08C1391.43 1136.38 1390.37 1137.41 1389.08 1137.41 1387.78 1137.41 1386.7 1136.4 1386.65 1135.1L1379.61 934.962 1362.51 715.598 1198.97 715.598 1194.31 715.598ZM833.782 710.7 1194.31 710.791 1198.97 710.791 1364.74 710.791C1365.99 710.791 1367.02 711.757 1367.14 713.007L1384.39 934.578 1389.12 1068.31 1389.96 1050.48 1393.28 1002.96 1397.63 951.979 1403.03 897.419 1409.35 839.42 1416.85 777.948 1425.43 712.882C1425.57 711.685 1426.6 710.791 1427.8 710.791L1607.53 710.791C1608.78 710.791 1609.81 711.736 1609.93 712.971L1610.37 717.778 1610.97 723.457 1611.74 730.361 1612.48 738.511 1613.23 747.546 1614.14 757.748 1615.17 769.004 1616.23 781.341 1617.43 794.852 1618.63 809.287 1619.83 824.924 1621.2 841.588 1622.69 859.458 1624.21 878.239 1625.84 898.212 1627.5 919.267 1634.82 1094.65 1637.27 1040.86 1645.23 931.885 1656.35 822.461 1670.62 712.884C1670.77 711.688 1671.8 710.791 1673 710.791L1843.12 710.791C1843.81 710.791 1844.46 711.084 1844.92 711.594 1845.38 712.106 1845.59 712.786 1845.52 713.468L1773.59 1343.49C1773.45 1344.71 1772.41 1345.63 1771.21 1345.63L1558.14 1345.63C1556.96 1345.63 1555.98 1344.79 1555.76 1343.63L1542.55 1267.78 1531.13 1188.85 1521.52 1106.6 1516.69 1053.94 1516.69 1054.06 1515.47 1067.78 1514.12 1082.95 1512.47 1099.65 1510.52 1117.7 1508.26 1137.1 1505.86 1157.96 1503.17 1180.22 1500.17 1203.96 1496.85 1229.06 1493.39 1255.49 1489.64 1283.45 1485.58 1312.75 1481.23 1343.56C1481.07 1344.74 1480.06 1345.63 1478.86 1345.63L1266.69 1345.63C1265.47 1345.63 1264.44 1344.71 1264.29 1343.49L1201.37 794.599 1201.37 851.849C1201.37 853.175 1200.29 854.252 1198.97 854.252L1106.47 854.252 1106.47 1343.22C1106.47 1344.55 1105.39 1345.63 1104.07 1345.63L928.238 1345.63C926.912 1345.63 925.835 1344.55 925.835 1343.22L925.835 854.25 833.78 854.154C832.454 854.154 831.38 853.077 831.38 851.75L831.38 713.103C831.38 711.776 832.456 710.7 833.782 710.7ZM618.221 702.336 590.269 703.559 564.257 707.111 540.346 713.187 518.548 721.475 499.04 731.901 482.518 744.301 468.836 758.282 458.167 774.179 453.758 783.264 450.058 793.465 446.791 805.026 444.115 817.654 442.027 831.503 440.535 846.722 439.636 863.005 439.334 880.45 440.223 904.461 442.586 926.165 446.724 945.73 452.487 963.227 459.43 978.634 467.258 992.094 475.76 1003.87 485.358 1013.92 491.037 1018.87 497.704 1024.49 505.935 1030.79 515.216 1037.66 525.863 1045.33 537.688 1053.72 550.883 1062.71 565.288 1072.32 579.433 1081.65 592.222 1090.37 603.794 1098.5 614.211 1105.9 623.41 1112.85 631.279 1119.05 637.962 1124.67 643.368 1129.62C643.565 1129.82 643.731 1130.03 643.855 1130.27L645.946 1134.17 647.829 1139.24 649.372 1145.44 650.59 1152.94 651.5 1161.45 652.103 1171.28 652.555 1182.31 652.704 1194.61 652.238 1205.14 651.188 1214.01C651.173 1214.13 651.152 1214.25 651.121 1214.35L649.167 1221.56C649.131 1221.7 649.081 1221.85 649.021 1221.97L646.318 1227.69C646.234 1227.85 646.128 1228.02 646.003 1228.17L642.549 1232.37C642.436 1232.52 642.308 1232.64 642.169 1232.76L638.114 1235.91C637.929 1236.05 637.724 1236.17 637.506 1236.24L632.852 1238.05C632.655 1238.12 632.451 1238.17 632.242 1238.19L626.687 1238.79C626.452 1238.81 626.216 1238.81 625.986 1238.77L616.376 1236.96C615.963 1236.89 615.579 1236.7 615.259 1236.44L609.102 1231.17C608.796 1230.91 608.561 1230.59 608.419 1230.21L606.466 1225.09C606.408 1224.95 606.365 1224.8 606.339 1224.63L604.964 1216.17 604.056 1204.47 603.756 1189.83 603.756 1109.77 444.441 1109.77 444.441 1155.39 444.739 1172.48 445.335 1188.6 446.529 1203.68 448.17 1217.88 450.097 1231.12 452.622 1243.31 455.579 1254.58 458.962 1264.75 463.044 1274.27 468.17 1283.23 474.33 1291.91 481.396 1300.03 489.476 1307.82 498.648 1315.1 508.873 1322.07 519.895 1328.56 544.518 1339.55 571.395 1347.45 600.726 1352.09 632.475 1353.73 661.502 1352.4 688.719 1348.25 714.128 1341.44 737.946 1331.9 748.925 1326.28 758.847 1320.37 768.003 1314.02 776.121 1307.39 783.316 1300.49 789.491 1293.3 794.903 1285.71 799.309 1277.8 803.137 1269.15 806.39 1259.53 809.208 1248.74 811.44 1236.84 813.229 1223.74 814.423 1209.71 815.173 1194.61 815.473 1178.32 815.026 1156.04 813.686 1135.44 811.459 1116.38 808.186 1098.79 804.196 1082.78 799.165 1068.41 793.447 1055.59 786.711 1044.42 778.326 1033.79 767.054 1022.35 752.901 1010.14 735.875 997.141 715.98 983.369 693.214 968.828 667.443 953.397 638.914 937.317C638.76 937.221 638.616 937.125 638.484 937.005L627.692 927.271 618.706 917.801 611.478 908.86 606.223 900.447C606.151 900.328 606.089 900.207 606.036 900.087L603.333 893.478C603.276 893.333 603.232 893.189 603.203 893.045L601.365 883.959 600.152 872.631 599.852 859.136 600.177 848.803 601.433 840.112 603.235 833.351C603.271 833.221 603.316 833.094 603.372 832.971L605.774 827.715C605.858 827.532 605.964 827.359 606.091 827.203L609.243 823.297C609.356 823.16 609.481 823.033 609.62 822.924L613.224 820.069C613.412 819.923 613.618 819.802 613.837 819.716L618.041 818.065C618.226 817.993 618.418 817.942 618.613 817.918L623.269 817.317C623.521 817.283 623.778 817.291 624.028 817.341L631.836 818.844C632.261 818.923 632.653 819.117 632.977 819.404L638.231 824.059C638.529 824.323 638.757 824.658 638.894 825.032L640.547 829.539C640.598 829.681 640.636 829.83 640.663 829.979L641.888 837.552 642.645 848.037 642.945 861.311 642.945 912.081 802.26 912.081 802.26 882.541 801.959 864.551 801.366 847.827 800.174 832.452 798.536 818.584 796.467 805.833 793.801 794.551 790.874 784.704 787.371 776.058 783.311 768.333 778.209 760.873 772.217 753.838 765.154 747.055 757.223 740.575 748.197 734.499 738.294 728.726 727.37 723.4 703.473 714.173 677.457 707.614 648.994 703.729ZM618.01 697.533 649.21 698.927 678.105 702.852 704.643 709.512 729.098 718.912 740.396 724.402 750.614 730.346 759.904 736.588 768.19 743.327 775.542 750.367 781.863 757.751 787.273 765.613 791.619 773.811 795.324 782.891 798.404 793.176 801.142 804.725 803.278 817.812 804.945 831.887 806.156 847.455 806.762 864.38 807.065 882.445 807.065 914.484C807.065 915.806 805.988 916.888 804.662 916.888L640.543 916.888C639.216 916.888 638.14 915.806 638.14 914.484L638.14 861.311 637.84 848.147 637.095 837.901 635.956 830.981 634.592 827.256 630.284 823.439 623.5 822.134 619.523 822.646 615.927 824.059 612.813 826.525 610.019 829.989 607.826 834.786 606.077 841.35 604.933 849.483 604.654 859.28 604.955 872.524 606.144 883.431 607.867 891.843 610.406 898.068 615.552 906.312 622.44 914.773 631.173 923.954 641.504 933.256 669.8 949.191 695.682 964.693 718.565 979.307 738.609 993.175 755.818 1006.32 770.194 1018.72 781.745 1030.43 790.478 1041.44 797.558 1053.09 803.55 1066.43 808.729 1081.19 812.847 1097.63 816.182 1115.49 818.459 1134.89 819.822 1155.72 820.276 1178.22 819.978 1194.69 819.223 1209.95 818.017 1224.15 816.201 1237.49 813.931 1249.63 811.041 1260.76 807.687 1270.69 803.706 1279.75 799.103 1288.06 793.404 1296.09 786.966 1303.61 779.446 1310.85 771.047 1317.75 761.586 1324.31 751.387 1330.41 740.142 1336.18 715.913 1345.89 689.966 1352.91 662.227 1357.16 632.696 1358.53 600.479 1356.88 570.648 1352.19 543.168 1344.16 517.94 1332.94 506.442 1326.21 495.943 1319.07 486.497 1311.59 478.061 1303.49 470.71 1295.08 464.257 1286.02 458.876 1276.67 454.549 1266.65 451.021 1256.1 447.975 1244.53 445.393 1232.08 443.416 1218.58 441.755 1204.23 440.545 1188.99 439.939 1172.65 439.636 1155.48 439.636 1107.37C439.636 1106.04 440.713 1104.96 442.039 1104.96L604.599 1104.96 601.013 1102.42 589.461 1094.31 576.726 1085.61 562.642 1076.34 548.216 1066.7 534.983 1057.69 523.084 1049.25 512.412 1041.58 503.071 1034.64 494.787 1028.31 487.938 1022.52 482.208 1017.55 472.286 1007.19 463.368 994.906 455.279 981.038 448.107 965.198 442.161 947.244 437.887 927.15 435.446 904.99 434.534 880.619 434.832 862.921 435.737 846.457 437.246 831.032 439.363 816.94 442.092 804.031 445.433 792.16 449.239 781.627 453.84 772.086 464.968 755.422C465.052 755.297 465.143 755.184 465.249 755.078L479.212 740.806C479.299 740.72 479.39 740.638 479.488 740.566L496.306 727.947C496.402 727.873 496.505 727.808 496.613 727.75L516.285 717.235 538.635 708.695 563.07 702.453 589.615 698.795Z" fill-rule="evenodd"/><path d="M810.855 690.198 1171.33 690.198 1175.84 690.198 1341.71 690.198 1358.91 911.804 1365.92 1112.02C1367.65 1008.83 1380.55 868.22 1404.64 690.198L1584.46 690.198C1586.91 712.6 1592.77 781.344 1602.05 896.447L1611.63 1126.76C1616.17 981.981 1628.92 836.477 1649.89 690.198L1820.03 690.198 1748.04 1320.27 1535.08 1320.27C1516.15 1221.26 1502.09 1113.83 1492.97 997.987 1491.84 1045.07 1479.44 1152.5 1455.76 1320.27L1243.58 1320.27 1175.84 729.62 1175.84 828.836 1081.01 828.836 1081.01 1320.27 905.295 1320.27 905.295 828.836 810.855 828.836ZM595.223 677.033C637.867 677.033 674.556 684.089 705.288 698.204 736.02 712.319 756.445 730.243 766.56 751.978 776.676 773.714 781.735 809.557 781.735 859.515L781.735 891.568 617.624 891.568 617.624 838.286C617.624 818.707 616.286 806.88 613.613 802.806 610.942 798.73 606.589 796.695 600.562 796.695 593.983 796.695 588.794 799.684 584.999 805.666 581.204 811.65 579.304 821.843 579.304 836.248 579.304 855.501 581.319 868.816 585.348 876.187 591.007 887.049 601.6 899.09 617.127 912.285 697.172 956.217 746.684 992.099 765.665 1019.93 785.15 1048.5 794.893 1093.61 794.893 1155.24 794.893 1200.15 789.445 1233.66 778.544 1255.74 767.644 1277.83 746.82 1296.24 716.073 1310.95 685.327 1325.68 649.846 1333.03 609.628 1333.03 565.449 1333.03 527.572 1324.57 496.007 1307.65 464.439 1290.74 443.723 1269.06 433.86 1242.64 423.998 1216.21 419.063 1179.49 419.063 1132.4L419.063 1084.43 583.176 1084.43 583.176 1166.89C583.176 1188.47 584.668 1201.64 587.654 1206.33 590.639 1211.04 595.931 1213.37 603.526 1213.37 611.28 1213.37 617.18 1210.13 621.227 1203.61 625.275 1197.13 627.3 1186.41 627.3 1171.48 627.3 1137.36 624.466 1116.3 618.797 1108.35 606.084 1096.04 580.176 1077.01 541.072 1051.24 500.967 1024.59 474.206 1005.08 460.788 992.7 447.37 980.346 436.224 963.163 427.346 941.149 418.47 919.158 414.033 891.28 414.033 857.486 414.033 809.019 420.397 773.264 433.123 750.221 445.849 727.176 466.279 709.219 494.41 696.344 522.543 683.469 556.145 677.033 595.223 677.033Z" stroke="#000000" stroke-width="5" stroke-linejoin="round" stroke-miterlimit="10" fill="#00B050" fill-rule="evenodd"/><path d="M29.4687-150.867 88.0859-155.992C90.862-132.503 97.3216-113.23 107.465-98.1758 117.608-83.1211 133.357-70.9492 154.711-61.6601 176.065-52.3711 200.089-47.7266 226.781-47.7266 250.484-47.7266 271.411-51.25 289.562-58.2969 307.714-65.3437 321.22-75.0065 330.082-87.2851 338.944-99.5638 343.375-112.964 343.375-127.484 343.375-142.219 339.104-155.085 330.562-166.082 322.021-177.079 307.927-186.315 288.281-193.789 275.682-198.701 247.815-206.335 204.68-216.691 161.544-227.048 131.328-236.818 114.031-246 91.6094-257.745 74.8997-272.319 63.9023-289.723 52.9049-307.126 47.4062-326.612 47.4062-348.18 47.4062-371.883 54.1328-394.038 67.5859-414.645 81.039-435.251 100.685-450.893 126.523-461.57 152.362-472.247 181.083-477.586 212.687-477.586 247.495-477.586 278.191-471.98 304.777-460.77 331.363-449.559 351.81-433.062 366.117-411.281 380.424-389.5 388.112-364.836 389.18-337.289L329.602-332.805C326.398-362.487 315.561-384.909 297.09-400.07 278.618-415.232 251.339-422.812 215.25-422.812 177.667-422.812 150.28-415.926 133.09-402.152 115.9-388.379 107.305-371.776 107.305-352.344 107.305-335.474 113.391-321.594 125.562-310.703 137.521-299.812 168.751-288.655 219.254-277.23 269.756-265.806 304.404-255.823 323.195-247.281 350.529-234.682 370.708-218.72 383.734-199.395 396.76-180.069 403.273-157.807 403.273-132.609 403.273-107.625 396.12-84.082 381.812-61.9805 367.505-39.8789 346.952-22.6888 320.152-10.4102 293.353 1.86849 263.19 8.00781 229.664 8.00781 187.169 8.00781 151.561 1.8151 122.84-10.5703 94.1185-22.9557 71.5898-41.5872 55.2539-66.4648 38.918-91.3424 30.3229-119.477 29.4687-150.867ZM607.794 0 607.794-414.164 453.083-414.164 453.083-469.578 825.286-469.578 825.286-414.164 669.935-414.164 669.935 0ZM970.786 0 846.185-469.578 909.927-469.578 981.357-161.758C989.044-129.513 995.664-97.4818 1001.22-65.6641 1013.17-115.846 1020.22-144.781 1022.36-152.469L1111.72-469.578 1186.68-469.578 1253.94-231.906C1270.81-172.969 1282.98-117.555 1290.46-65.6641 1296.44-95.3463 1304.23-129.406 1313.84-167.844L1387.51-469.578 1449.97-469.578 1321.21 0 1261.31 0 1162.33-357.789C1154.01-387.685 1149.09-406.049 1147.6-412.883 1142.69-391.315 1138.1-372.951 1133.83-357.789L1034.21 0Z" fill="#000000" fill-opacity="0" transform="matrix(1 0 0 1 413.675 1296)"/><path d="M29.4687-150.867 88.0859-155.992C90.862-132.503 97.3216-113.23 107.465-98.1758 117.608-83.1211 133.357-70.9492 154.711-61.6601 176.065-52.3711 200.089-47.7266 226.781-47.7266 250.484-47.7266 271.411-51.25 289.562-58.2969 307.714-65.3437 321.22-75.0065 330.082-87.2851 338.944-99.5638 343.375-112.964 343.375-127.484 343.375-142.219 339.104-155.085 330.562-166.082 322.021-177.079 307.927-186.315 288.281-193.789 275.682-198.701 247.815-206.335 204.68-216.691 161.544-227.048 131.328-236.818 114.031-246 91.6094-257.745 74.8997-272.319 63.9023-289.723 52.9049-307.126 47.4062-326.612 47.4062-348.18 47.4062-371.883 54.1328-394.038 67.5859-414.645 81.039-435.251 100.685-450.893 126.523-461.57 152.362-472.247 181.083-477.586 212.687-477.586 247.495-477.586 278.191-471.98 304.777-460.77 331.363-449.559 351.81-433.062 366.117-411.281 380.424-389.5 388.112-364.836 389.18-337.289L329.602-332.805C326.398-362.487 315.561-384.909 297.09-400.07 278.618-415.232 251.339-422.812 215.25-422.812 177.667-422.812 150.28-415.926 133.09-402.152 115.9-388.379 107.305-371.776 107.305-352.344 107.305-335.474 113.391-321.594 125.562-310.703 137.521-299.812 168.751-288.655 219.254-277.23 269.756-265.806 304.404-255.823 323.195-247.281 350.529-234.682 370.708-218.72 383.734-199.395 396.76-180.069 403.273-157.807 403.273-132.609 403.273-107.625 396.12-84.082 381.812-61.9805 367.505-39.8789 346.952-22.6888 320.152-10.4102 293.353 1.86849 263.19 8.00781 229.664 8.00781 187.169 8.00781 151.561 1.8151 122.84-10.5703 94.1185-22.9557 71.5898-41.5872 55.2539-66.4648 38.918-91.3424 30.3229-119.477 29.4687-150.867ZM607.794 0 607.794-414.164 453.083-414.164 453.083-469.578 825.286-469.578 825.286-414.164 669.935-414.164 669.935 0ZM970.786 0 846.185-469.578 909.927-469.578 981.357-161.758C989.044-129.513 995.664-97.4818 1001.22-65.6641 1013.17-115.846 1020.22-144.781 1022.36-152.469L1111.72-469.578 1186.68-469.578 1253.94-231.906C1270.81-172.969 1282.98-117.555 1290.46-65.6641 1296.44-95.3463 1304.23-129.406 1313.84-167.844L1387.51-469.578 1449.97-469.578 1321.21 0 1261.31 0 1162.33-357.789C1154.01-387.685 1149.09-406.049 1147.6-412.883 1142.69-391.315 1138.1-372.951 1133.83-357.789L1034.21 0Z" fill="#000000" fill-opacity="0" transform="matrix(1 0 0 1 413.675 1296)"/></g></g><path d="M2101.51 273.007C1580.1 273.007 1158.01 695.1 1158.01 1216.51 1158.01 1737.92 1580.1 2160.01 2101.51 2160.01 2622.92 2160.01 3045.01 1737.92 3045.01 1216.51 3045.01 695.1 2622.92 273.007 2101.51 273.007ZM1257.32 1216.51C1257.32 995.529 1341.74 796.899 1480.78 645.441 1503.13 657.856 1525.48 677.72 1530.44 695.1L1530.44 851.522C1530.44 861.453 1532.93 873.868 1540.37 881.317L1704.25 1092.36 1716.66 1079.95C1724.11 1072.5 1726.59 1060.09 1721.62 1050.15L1691.83 1000.5C1679.42 980.632 1699.28 955.804 1721.62 963.253 1729.07 965.735 1734.04 970.701 1736.52 975.668L1818.46 1137.05C1828.39 1154.44 1843.29 1169.33 1860.67 1174.3L1969.91 1211.54C1977.36 1214.03 1982.33 1218.99 1984.81 1223.96L1992.26 1236.37C1999.71 1253.75 2017.09 1263.68 2036.95 1263.68L2066.75 1263.68C2074.2 1263.68 2081.64 1268.65 2086.61 1273.61L2118.89 1320.79C2126.34 1330.72 2136.27 1338.17 2148.68 1340.65L2200.82 1353.07C2215.72 1355.55 2223.17 1372.93 2218.21 1385.34 2218.21 1385.34 2178.48 1425.07 2178.48 1482.18 2178.48 1646.05 2327.45 1693.22 2327.45 1730.47 2327.45 1832.26 2312.55 1973.79 2305.1 2028.42 2240.55 2043.31 2173.51 2053.24 2103.99 2053.24 1637.21 2060.69 1257.32 1680.81 1257.32 1216.51ZM2419.32 1998.62C2473.94 1951.44 2565.81 1871.99 2598.09 1837.23 2640.3 1790.06 2647.74 1713.09 2647.74 1713.09 2647.74 1713.09 2821.55 1665.91 2821.55 1539.28 2821.55 1452.38 2647.74 1415.14 2647.74 1415.14 2617.95 1318.31 2471.46 1266.17 2349.8 1266.17 2322.48 1266.17 2225.65 1315.82 2225.65 1315.82L2176 1291 2176 1216.51C2176 1201.61 2166.06 1191.68 2151.17 1191.68L2101.51 1191.68 2101.51 1117.19C2101.51 1102.3 2091.58 1092.36 2076.68 1092.36L2051.85 1092.36 2024.54 1109.74C1999.71 1127.12 1964.95 1117.19 1952.53 1089.88 1952.53 1089.88 1927.71 1055.12 1927.71 1040.22 1927.71 933.458 2051.85 940.906 2051.85 940.906L2106.47 940.906C2118.89 940.906 2128.82 948.355 2131.3 960.771L2146.2 1022.84C2148.68 1032.77 2158.61 1042.71 2171.03 1042.71L2180.96 1042.71C2193.37 1042.71 2203.31 1035.26 2205.79 1022.84L2223.17 930.976C2225.65 923.527 2228.14 916.079 2233.1 908.63L2302.62 821.728C2317.52 804.348 2337.38 794.415 2359.73 794.415L2424.28 794.415C2439.18 794.415 2449.11 784.484 2449.11 769.587L2449.11 744.759 2441.66 737.31C2426.77 722.412 2436.7 695.1 2459.05 695.1L2473.94 695.1C2488.84 695.1 2498.77 705.031 2498.77 719.928 2498.77 734.825 2508.7 744.759 2523.6 744.759L2548.43 744.759 2563.33 680.203C2568.29 657.856 2558.36 637.992 2540.98 625.58L2329.93 498.952C2327.45 496.467 2322.48 496.467 2317.52 496.467L2275.31 496.467C2248 496.467 2225.65 518.813 2225.65 546.126L2225.65 570.954C2225.65 585.852 2215.72 595.785 2200.82 595.785L2176 595.785 2151.17 570.954 2076.68 570.954C2061.78 570.954 2051.85 561.023 2051.85 546.126L2051.85 484.055C2051.85 476.606 2054.33 469.157 2061.78 464.191L2220.69 397.152 2245.52 439.362C2250.48 444.326 2255.45 446.811 2262.9 446.811L2324.97 446.811C2339.87 446.811 2349.8 436.878 2349.8 421.98L2349.8 409.568C2694.92 516.331 2945.69 836.625 2945.69 1216.51 2945.69 1569.08 2727.2 1871.99 2419.32 1998.62Z" stroke="#000000" stroke-width="12.0845" stroke-miterlimit="8" fill="#5B9BD5" fill-rule="evenodd"/><path d="M2406.68 1112.55 2287.9 1072.87C2278 1070.39 2270.57 1070.39 2260.68 1072.87L2176.54 1092.71C2169.11 1097.67 2166.64 1107.59 2176.54 1117.51L2290.37 1117.51C2297.8 1117.51 2302.75 1117.51 2307.69 1119.99L2394.31 1154.72C2409.16 1159.68 2424.01 1149.76 2424.01 1134.87 2424.01 1124.95 2416.58 1115.03 2406.68 1112.55Z" stroke="#000000" stroke-width="12.0845" stroke-miterlimit="8" fill="#5B9BD5" fill-rule="evenodd"/><path d="M2383.61 1088.55 2264.36 1048.86C2254.42 1046.38 2246.97 1046.38 2237.03 1048.86L2152.56 1068.71C2145.1 1073.67 2142.62 1083.59 2152.56 1093.51L2266.84 1093.51C2274.3 1093.51 2279.27 1093.51 2284.23 1095.99L2371.19 1130.71C2386.1 1135.67 2401 1125.75 2401 1110.87 2401 1100.95 2393.55 1091.03 2383.61 1088.55Z" stroke="#000000" stroke-width="12.0845" stroke-miterlimit="8" fill="#5B9BD5" fill-rule="evenodd"/><path d="M1805.63 959.979 2166.1 959.979 2170.62 959.979 2336.48 959.979 2353.68 1181.58 2360.72 1381.82C2362.43 1278.6 2375.32 1138.01 2399.42 959.979L2579.24 959.979C2581.69 982.378 2587.55 1051.12 2596.82 1166.22L2606.41 1396.53C2610.95 1251.78 2623.7 1106.26 2644.7 959.979L2814.81 959.979 2742.82 1590.05 2529.88 1590.05C2510.92 1491.03 2496.89 1383.6 2487.74 1267.76 2486.61 1314.87 2474.22 1422.3 2450.53 1590.05L2238.36 1590.05 2170.62 999.4 2170.62 1098.61 2075.81 1098.61 2075.81 1590.05 1900.07 1590.05 1900.07 1098.61 1805.63 1098.61ZM1590 946.811C1632.64 946.811 1669.33 953.869 1700.07 967.984 1730.8 982.099 1751.22 1000.02 1761.34 1021.76 1771.45 1043.49 1776.51 1079.34 1776.51 1129.28L1776.51 1161.34 1612.4 1161.34 1612.4 1108.07C1612.4 1088.49 1611.06 1076.66 1608.39 1072.58 1605.72 1068.51 1601.37 1066.47 1595.34 1066.47 1588.76 1066.47 1583.57 1069.46 1579.78 1075.45 1575.98 1081.43 1574.08 1091.62 1574.08 1106.03 1574.08 1125.29 1576.1 1138.58 1580.12 1145.96 1585.78 1156.83 1596.38 1168.87 1611.91 1182.06 1691.95 1226.02 1741.46 1261.9 1760.44 1289.71 1779.93 1318.28 1789.67 1363.39 1789.67 1425.01 1789.67 1469.93 1784.22 1503.43 1773.32 1525.52 1762.42 1547.61 1741.6 1566.02 1710.85 1580.75 1680.11 1595.46 1644.62 1602.81 1604.41 1602.81 1560.22 1602.81 1522.35 1594.35 1490.78 1577.43 1459.22 1560.51 1438.5 1538.83 1428.64 1512.42 1418.77 1486.01 1413.84 1449.26 1413.84 1402.2L1413.84 1354.21 1577.95 1354.21 1577.95 1436.67C1577.95 1458.27 1579.45 1471.42 1582.43 1476.11 1585.42 1480.82 1590.71 1483.15 1598.3 1483.15 1606.06 1483.15 1611.96 1479.9 1616.01 1473.39 1620.05 1466.9 1622.08 1456.18 1622.08 1441.26 1622.08 1407.13 1619.24 1386.1 1613.57 1378.12 1600.86 1365.82 1574.95 1346.78 1535.85 1321.04 1495.74 1294.37 1468.98 1274.85 1455.57 1262.48 1442.15 1250.12 1431 1232.94 1422.12 1210.95 1413.25 1188.93 1408.81 1161.06 1408.81 1127.26 1408.81 1078.8 1415.17 1043.04 1427.9 1020 1440.63 996.956 1461.06 978.998 1489.19 966.124 1517.32 953.249 1550.92 946.811 1590 946.811Z" fill-rule="evenodd"/><path d="M1580.84 1355.05 1580.84 1437.11 1581.14 1451.65 1582.03 1463.07 1583.32 1470.88 1584.97 1475.2 1590.17 1479.65 1598.8 1481.26 1603.69 1480.73 1607.72 1479.17 1611.28 1476.41 1614.38 1472.63 1616.86 1467.37 1618.71 1460.54 1619.74 1451.87 1620.18 1441.67 1620.03 1429.63 1619.58 1418.75 1618.98 1409.03 1618.09 1400.72 1616.91 1393.48 1615.44 1387.67 1613.72 1383.13 1612.11 1380.19 1606.99 1375.51 1600.46 1370 1592.71 1363.9 1583.6 1357.02ZM1808.46 962.784 1808.46 1096.63 1900.52 1096.72C1901.84 1096.72 1902.92 1097.8 1902.92 1099.13L1902.92 1588.1 2073.95 1588.1 2073.95 1099.13C2073.95 1097.8 2075.03 1096.72 2076.35 1096.72L2168.84 1096.72 2168.84 999.829C2168.84 998.555 2169.83 997.503 2171.1 997.431 2172.38 997.356 2173.48 998.289 2173.62 999.555L2241.11 1588.1 2449.04 1588.1 2453.1 1559.37 2457.16 1530.08 2460.91 1502.15 2464.37 1475.71 2467.66 1450.64 2470.67 1426.92 2473.38 1404.71 2475.78 1383.82 2478.02 1364.45 2479.96 1346.45 2481.62 1329.79 2482.97 1314.63 2484.17 1301 2485.08 1288.57 2485.66 1277.66 2485.97 1268.19C2486.02 1266.92 2487.03 1265.91 2488.3 1265.88 2489.57 1265.83 2490.65 1266.79 2490.75 1268.04L2498.56 1353.32 2508.17 1435.43 2519.56 1514.21 2532.43 1588.1 2741.33 1588.1 2812.7 962.875 2647.39 962.875 2633.41 1070.23 2622.31 1179.52 2614.36 1288.35 2609.38 1397.11C2609.34 1398.41 2608.28 1399.42 2606.98 1399.42 2605.71 1399.42 2604.65 1398.39 2604.58 1397.11L2594.99 1166.91 2593.34 1145.9 2591.68 1125.9 2590.19 1107.14 2588.67 1089.25 2587.33 1072.57 2586.13 1056.96 2584.93 1042.55 2583.73 1029.03 2582.67 1016.73 2581.64 1005.45 2580.72 995.222 2579.98 986.23 2579.23 978.157 2578.46 971.239 2577.86 965.502 2577.62 962.875 2402.2 962.875 2393.91 1025.81 2386.41 1087.22 2380.09 1145.18 2374.69 1199.66 2370.34 1250.57 2367.05 1297.97 2364.93 1341.95 2363.73 1382.36C2363.71 1383.65 2362.65 1384.69 2361.35 1384.69 2360.06 1384.69 2358.98 1383.68 2358.93 1382.38L2351.89 1182.24 2334.78 962.875 2171.25 962.875 2166.59 962.875ZM1806.06 957.977 2166.59 958.068 2171.25 958.068 2337.02 958.068C2338.27 958.068 2339.3 959.035 2339.42 960.284L2356.67 1181.85 2361.4 1315.59 2362.24 1297.75 2365.56 1250.23 2369.91 1199.26 2375.31 1144.7 2381.63 1086.7 2389.13 1025.22 2397.7 960.159C2397.85 958.962 2398.88 958.068 2400.08 958.068L2579.81 958.068C2581.06 958.068 2582.09 959.013 2582.21 960.248L2582.64 965.055 2583.25 970.735 2584.01 977.638 2584.76 985.788 2585.5 994.823 2586.42 1005.03 2587.45 1016.28 2588.51 1028.62 2589.71 1042.13 2590.91 1056.56 2592.11 1072.2 2593.48 1088.86 2594.97 1106.74 2596.48 1125.52 2598.12 1145.49 2599.77 1166.54 2607.1 1341.93 2609.55 1288.14 2617.5 1179.16 2628.63 1069.74 2642.9 960.162C2643.04 958.965 2644.08 958.068 2645.28 958.068L2815.4 958.068C2816.09 958.068 2816.74 958.361 2817.2 958.871 2817.65 959.383 2817.87 960.063 2817.8 960.746L2745.87 1590.76C2745.72 1591.99 2744.69 1592.9 2743.49 1592.9L2530.42 1592.9C2529.24 1592.9 2528.25 1592.06 2528.04 1590.91L2514.82 1515.05 2503.41 1436.12 2493.8 1353.87 2488.97 1301.21 2488.97 1301.33 2487.75 1315.06 2486.4 1330.22 2484.74 1346.93 2482.8 1364.98 2480.54 1384.37 2478.14 1405.24 2475.45 1427.49 2472.44 1451.24 2469.13 1476.33 2465.67 1502.77 2461.92 1530.72 2457.86 1560.02 2453.51 1590.84C2453.34 1592.01 2452.33 1592.9 2451.13 1592.9L2238.97 1592.9C2237.75 1592.9 2236.71 1591.99 2236.57 1590.76L2173.65 1041.88 2173.65 1099.13C2173.65 1100.45 2172.57 1101.53 2171.25 1101.53L2078.75 1101.53 2078.75 1590.5C2078.75 1591.82 2077.67 1592.9 2076.35 1592.9L1900.51 1592.9C1899.19 1592.9 1898.11 1591.82 1898.11 1590.5L1898.11 1101.53 1806.06 1101.43C1804.73 1101.43 1803.66 1100.35 1803.66 1099.03L1803.66 960.38C1803.66 959.054 1804.73 957.977 1806.06 957.977ZM1590.5 949.613 1562.55 950.836 1536.53 954.388 1512.62 960.464 1490.83 968.752 1471.32 979.178 1454.8 991.578 1441.11 1005.56 1430.44 1021.46 1426.04 1030.54 1422.34 1040.74 1419.07 1052.3 1416.39 1064.93 1414.3 1078.78 1412.81 1094 1411.91 1110.28 1411.61 1127.73 1412.5 1151.74 1414.86 1173.44 1419 1193.01 1424.76 1210.5 1431.71 1225.91 1439.53 1239.37 1448.04 1251.15 1457.64 1261.19 1463.31 1266.15 1469.98 1271.77 1478.21 1278.07 1487.49 1284.94 1498.14 1292.61 1509.97 1301 1523.16 1309.99 1537.56 1319.6 1551.71 1328.93 1564.5 1337.65 1576.07 1345.77 1586.49 1353.18 1595.69 1360.12 1603.56 1366.32 1610.24 1371.95 1615.65 1376.9C1615.84 1377.09 1616.01 1377.31 1616.13 1377.55L1618.22 1381.44 1620.11 1386.51 1621.65 1392.72 1622.87 1400.21 1623.78 1408.72 1624.38 1418.55 1624.83 1429.59 1624.98 1441.89 1624.52 1452.42 1623.47 1461.29C1623.45 1461.41 1623.43 1461.53 1623.4 1461.62L1621.44 1468.83C1621.41 1468.98 1621.36 1469.12 1621.3 1469.24L1618.6 1474.96C1618.51 1475.13 1618.41 1475.3 1618.28 1475.44L1614.83 1479.65C1614.71 1479.79 1614.59 1479.91 1614.45 1480.03L1610.39 1483.18C1610.21 1483.33 1610 1483.45 1609.78 1483.52L1605.13 1485.32C1604.93 1485.39 1604.73 1485.44 1604.52 1485.47L1598.96 1486.07C1598.73 1486.09 1598.49 1486.09 1598.26 1486.04L1588.65 1484.24C1588.24 1484.17 1587.86 1483.98 1587.54 1483.71L1581.38 1478.45C1581.07 1478.18 1580.84 1477.87 1580.7 1477.49L1578.74 1472.37C1578.69 1472.22 1578.64 1472.08 1578.62 1471.91L1577.24 1463.45 1576.33 1451.75 1576.03 1437.11 1576.03 1357.05 1416.72 1357.05 1416.72 1402.67 1417.02 1419.75 1417.61 1435.88 1418.81 1450.95 1420.45 1465.16 1422.37 1478.4 1424.9 1490.59 1427.86 1501.86 1431.24 1512.03 1435.32 1521.54 1440.45 1530.51 1446.61 1539.19 1453.67 1547.31 1461.75 1555.1 1470.93 1562.38 1481.15 1569.35 1492.17 1575.84 1516.8 1586.82 1543.67 1594.73 1573 1599.37 1604.75 1601 1633.78 1599.68 1661 1595.52 1686.4 1588.72 1710.22 1579.18 1721.2 1573.56 1731.12 1567.64 1740.28 1561.3 1748.4 1554.66 1755.59 1547.77 1761.77 1540.58 1767.18 1532.98 1771.59 1525.08 1775.41 1516.42 1778.67 1506.81 1781.48 1496.02 1783.72 1484.12 1785.51 1471.02 1786.7 1456.99 1787.45 1441.89 1787.75 1425.6 1787.3 1403.31 1785.96 1382.72 1783.74 1363.66 1780.46 1346.06 1776.47 1330.06 1771.44 1315.68 1765.72 1302.87 1758.99 1291.7 1750.6 1281.07 1739.33 1269.63 1725.18 1257.42 1708.15 1244.42 1688.26 1230.65 1665.49 1216.1 1639.72 1200.67 1611.19 1184.59C1611.04 1184.5 1610.89 1184.4 1610.76 1184.28L1599.97 1174.55 1590.98 1165.08 1583.75 1156.14 1578.5 1147.72C1578.43 1147.6 1578.37 1147.48 1578.31 1147.36L1575.61 1140.75C1575.55 1140.61 1575.51 1140.47 1575.48 1140.32L1573.64 1131.24 1572.43 1119.91 1572.13 1106.41 1572.45 1096.08 1573.71 1087.39 1575.51 1080.63C1575.55 1080.5 1575.59 1080.37 1575.65 1080.25L1578.05 1074.99C1578.14 1074.81 1578.24 1074.64 1578.37 1074.48L1581.52 1070.57C1581.63 1070.44 1581.76 1070.31 1581.9 1070.2L1585.5 1067.35C1585.69 1067.2 1585.9 1067.08 1586.11 1066.99L1590.32 1065.34C1590.5 1065.27 1590.7 1065.22 1590.89 1065.2L1595.55 1064.59C1595.8 1064.56 1596.06 1064.57 1596.31 1064.62L1604.11 1066.12C1604.54 1066.2 1604.93 1066.39 1605.25 1066.68L1610.51 1071.34C1610.81 1071.6 1611.03 1071.93 1611.17 1072.31L1612.82 1076.82C1612.87 1076.96 1612.91 1077.11 1612.94 1077.26L1614.17 1084.83 1614.92 1095.31 1615.22 1108.59 1615.22 1159.36 1774.54 1159.36 1774.54 1129.82 1774.24 1111.83 1773.64 1095.1 1772.45 1079.73 1770.81 1065.86 1768.74 1053.11 1766.08 1041.83 1763.15 1031.98 1759.65 1023.34 1755.59 1015.61 1750.49 1008.15 1744.49 1001.12 1737.43 994.333 1729.5 987.853 1720.47 981.776 1710.57 976.003 1699.65 970.677 1675.75 961.45 1649.73 954.891 1621.27 951.007ZM1590.29 944.81 1621.49 946.205 1650.38 950.13 1676.92 956.79 1701.37 966.19 1712.67 971.679 1722.89 977.623 1732.18 983.865 1740.47 990.605 1747.82 997.645 1754.14 1005.03 1759.55 1012.89 1763.9 1021.09 1767.6 1030.17 1770.68 1040.45 1773.42 1052 1775.56 1065.09 1777.22 1079.16 1778.43 1094.73 1779.04 1111.66 1779.34 1129.72 1779.34 1161.76C1779.34 1163.08 1778.27 1164.16 1776.94 1164.16L1612.82 1164.16C1611.49 1164.16 1610.42 1163.08 1610.42 1161.76L1610.42 1108.59 1610.12 1095.42 1609.37 1085.18 1608.23 1078.26 1606.87 1074.53 1602.56 1070.72 1595.78 1069.41 1591.8 1069.92 1588.2 1071.34 1585.09 1073.8 1582.3 1077.27 1580.1 1082.06 1578.35 1088.63 1577.21 1096.76 1576.93 1106.56 1577.23 1119.8 1578.42 1130.71 1580.14 1139.12 1582.68 1145.35 1587.83 1153.59 1594.72 1162.05 1603.45 1171.23 1613.78 1180.53 1642.08 1196.47 1667.96 1211.97 1690.84 1226.58 1710.89 1240.45 1728.09 1253.6 1742.47 1266 1754.02 1277.71 1762.76 1288.72 1769.84 1300.37 1775.83 1313.71 1781.01 1328.47 1785.12 1344.91 1788.46 1362.77 1790.74 1382.16 1792.1 1403 1792.55 1425.5 1792.26 1441.96 1791.5 1457.23 1790.29 1471.43 1788.48 1484.77 1786.21 1496.91 1783.32 1508.04 1779.96 1517.96 1775.98 1527.02 1771.38 1535.34 1765.68 1543.37 1759.24 1550.89 1751.72 1558.12 1743.32 1565.02 1733.86 1571.58 1723.66 1577.69 1712.42 1583.46 1688.19 1593.17 1662.24 1600.19 1634.5 1604.44 1604.97 1605.81 1572.76 1604.15 1542.93 1599.47 1515.45 1591.44 1490.22 1580.21 1478.72 1573.48 1468.22 1566.35 1458.77 1558.87 1450.34 1550.77 1442.99 1542.36 1436.53 1533.3 1431.15 1523.95 1426.83 1513.92 1423.3 1503.37 1420.25 1491.81 1417.67 1479.36 1415.69 1465.85 1414.03 1451.51 1412.82 1436.27 1412.22 1419.92 1411.91 1402.76 1411.91 1354.64C1411.91 1353.32 1412.99 1352.24 1414.32 1352.24L1576.88 1352.24 1573.29 1349.69 1561.74 1341.59 1549 1332.89 1534.92 1323.61 1520.49 1313.98 1507.26 1304.96 1495.36 1296.53 1484.69 1288.86 1475.35 1281.91 1467.06 1275.59 1460.22 1269.8 1454.49 1264.82 1444.56 1254.47 1435.65 1242.18 1427.56 1228.31 1420.38 1212.48 1414.44 1194.52 1410.16 1174.43 1407.72 1152.27 1406.81 1127.9 1407.11 1110.2 1408.01 1093.73 1409.52 1078.31 1411.64 1064.22 1414.37 1051.31 1417.71 1039.44 1421.52 1028.9 1426.12 1019.36 1437.25 1002.7C1437.33 1002.57 1437.42 1002.46 1437.53 1002.36L1451.49 988.083C1451.58 987.997 1451.67 987.915 1451.77 987.843L1468.58 975.225C1468.68 975.15 1468.78 975.085 1468.89 975.028L1488.56 964.512 1510.91 955.972 1535.35 949.73 1561.89 946.072Z" fill-rule="evenodd"/><path d="M1783.13 937.476 2143.61 937.476 2148.12 937.476 2313.99 937.476 2331.18 1159.08 2338.2 1359.3C2339.93 1256.1 2352.83 1115.5 2376.92 937.476L2556.74 937.476C2559.19 959.877 2565.05 1028.62 2574.32 1143.72L2583.91 1374.03C2588.45 1229.26 2601.2 1083.75 2622.17 937.476L2792.31 937.476 2720.32 1567.55 2507.35 1567.55C2488.42 1468.53 2474.37 1361.1 2465.24 1245.26 2464.12 1292.34 2451.72 1399.77 2428.04 1567.55L2215.86 1567.55 2148.12 976.898 2148.12 1076.11 2053.29 1076.11 2053.29 1567.55 1877.57 1567.55 1877.57 1076.11 1783.13 1076.11ZM1567.5 924.31C1610.14 924.31 1646.83 931.367 1677.57 945.481 1708.3 959.596 1728.72 977.52 1738.84 999.255 1748.95 1020.99 1754.01 1056.83 1754.01 1106.79L1754.01 1138.85 1589.9 1138.85 1589.9 1085.56C1589.9 1065.98 1588.56 1054.16 1585.89 1050.08 1583.22 1046.01 1578.87 1043.97 1572.84 1043.97 1566.26 1043.97 1561.07 1046.96 1557.28 1052.94 1553.48 1058.93 1551.58 1069.12 1551.58 1083.53 1551.58 1102.78 1553.6 1116.09 1557.62 1123.46 1563.28 1134.33 1573.88 1146.37 1589.4 1159.56 1669.45 1203.49 1718.96 1239.38 1737.94 1267.21 1757.43 1295.78 1767.17 1340.89 1767.17 1402.51 1767.17 1447.43 1761.72 1480.93 1750.82 1503.02 1739.92 1525.11 1719.1 1543.52 1688.35 1558.22 1657.6 1572.96 1622.12 1580.31 1581.91 1580.31 1537.73 1580.31 1499.85 1571.85 1468.28 1554.93 1436.72 1538.01 1416 1516.33 1406.14 1489.92 1396.27 1463.49 1391.34 1426.76 1391.34 1379.68L1391.34 1331.71 1555.45 1331.71 1555.45 1414.17C1555.45 1435.75 1556.95 1448.92 1559.93 1453.61 1562.92 1458.32 1568.21 1460.65 1575.8 1460.65 1583.56 1460.65 1589.46 1457.41 1593.5 1450.89 1597.55 1444.4 1599.58 1433.68 1599.58 1418.76 1599.58 1384.63 1596.74 1363.58 1591.07 1355.62 1578.36 1343.32 1552.45 1324.29 1513.35 1298.52 1473.24 1271.87 1446.48 1252.35 1433.06 1239.98 1419.65 1227.62 1408.5 1210.44 1399.62 1188.43 1390.75 1166.44 1386.31 1138.56 1386.31 1104.76 1386.31 1056.3 1392.67 1020.54 1405.4 997.499 1418.13 974.453 1438.56 956.496 1466.69 943.621 1494.82 930.746 1528.42 924.31 1567.5 924.31Z" stroke="#000000" stroke-width="4.806" stroke-linejoin="round" stroke-miterlimit="10" fill="#00B050" fill-rule="evenodd"/><text fill="#000000" fill-opacity="0" font-family="Arial,Arial_MSFontService,sans-serif" font-weight="400" font-size="656" transform="matrix(1 0 0 1 1385.95 1543)">STW</text></g></svg>